<?xml version="1.0" encoding="UTF-8" standalone="no"?><!DOCTYPE svg PUBLIC "-//W3C//DTD SVG 1.1//EN" "http://www.w3.org/Graphics/SVG/1.1/DTD/svg11.dtd"><svg width="100%" height="100%" viewBox="0 0 84 64" version="1.1" xmlns="http://www.w3.org/2000/svg" xmlns:xlink="http://www.w3.org/1999/xlink" xml:space="preserve" xmlns:serif="http://www.serif.com/" style="fill-rule:evenodd;clip-rule:evenodd;stroke-linejoin:round;stroke-miterlimit:1.41421;"><g><circle cx="41.396" cy="31.846" r="31.846" style="fill:#0b3d91;"/><g><circle cx="39.515" cy="6.117" r="0.357" style="fill:#fff;"/><circle cx="43.181" cy="6.593" r="0.357" style="fill:#fff;"/><circle cx="47.989" cy="13.067" r="0.357" style="fill:#fff;"/><circle cx="21.617" cy="46.388" r="0.357" style="fill:#fff;"/><circle cx="22.545" cy="49.244" r="0.357" style="fill:#fff;"/><circle cx="18.118" cy="46.817" r="0.267" style="fill:#fff;"/><circle cx="32.637" cy="52.427" r="0.268" style="fill:#fff;"/><circle cx="55.408" cy="47.697" r="0.267" style="fill:#fff;"/><circle cx="62.026" cy="40.509" r="0.268" style="fill:#fff;"/><circle cx="29.59" cy="15.155" r="0.267" style="fill:#fff;"/><circle cx="36.873" cy="9.806" r="0.267" style="fill:#fff;"/><circle cx="36.082" cy="9.282" r="0.267" style="fill:#fff;"/><circle cx="35.368" cy="8.759" r="0.267" style="fill:#fff;"/><circle cx="30.733" cy="16.536" r="0.267" style="fill:#fff;"/><circle cx="41.461" cy="2.618" r="0.267" style="fill:#fff;"/><circle cx="43.223" cy="10.33" r="0.267" style="fill:#fff;"/><circle cx="40.444" cy="8.824" r="0.267" style="fill:#fff;"/><circle cx="35.683" cy="10.872" r="0.267" style="fill:#fff;"/><circle cx="56.676" cy="54.761" r="0.267" style="fill:#fff;"/><circle cx="21.165" cy="48.197" r="0.268" style="fill:#fff;"/><circle cx="39.777" cy="51.648" r="0.268" style="fill:#fff;"/><circle cx="26.704" cy="47.983" r="0.268" style="fill:#fff;"/><circle cx="29.019" cy="51.762" r="0.268" style="fill:#fff;"/><circle cx="46.061" cy="49.382" r="0.267" style="fill:#fff;"/><circle cx="55.456" cy="44.08" r="0.267" style="fill:#fff;"/><circle cx="62.579" cy="47.334" r="0.267" style="fill:#fff;"/><circle cx="65.006" cy="48.887" r="0.267" style="fill:#fff;"/><circle cx="65.405" cy="44.651" r="0.267" style="fill:#fff;"/><circle cx="29.989" cy="38.653" r="0.267" style="fill:#fff;"/><circle cx="30.09" cy="44.794" r="0.357" style="fill:#fff;"/><circle cx="32.232" cy="49.316" r="0.357" style="fill:#fff;"/><circle cx="57.89" cy="44.603" r="0.357" style="fill:#fff;"/><circle cx="67.125" cy="44.08" r="0.357" style="fill:#fff;"/><circle cx="62.555" cy="42.128" r="0.357" style="fill:#fff;"/><circle cx="57.89" cy="42.318" r="0.357" style="fill:#fff;"/><path d="M48.267,5.893l0.888,-0.085l-0.886,-0.05c-0.028,-0.171 -0.165,-0.305 -0.338,-0.327l-0.085,-0.884l-0.051,0.891c-0.16,0.035 -0.283,0.17 -0.303,0.336l-0.908,0.083l0.914,0.049c0.034,0.153 0.157,0.273 0.313,0.301l0.082,0.911l0.049,-0.909c0.164,-0.028 0.294,-0.154 0.325,-0.316Z" style="fill:#fff;fill-rule:nonzero;"/><path d="M33.283,15.777l0.888,-0.085l-0.886,-0.05c-0.027,-0.171 -0.165,-0.305 -0.338,-0.328l-0.085,-0.883l-0.05,0.891c-0.161,0.035 -0.284,0.169 -0.304,0.336l-0.907,0.082l0.914,0.05c0.033,0.153 0.157,0.273 0.312,0.301l0.083,0.911l0.049,-0.909c0.164,-0.027 0.294,-0.154 0.324,-0.316Z" style="fill:#fff;fill-rule:nonzero;"/><path d="M66.474,41.909l0.888,-0.085l-0.886,-0.05c-0.027,-0.171 -0.165,-0.305 -0.338,-0.328l-0.085,-0.883l-0.05,0.89c-0.161,0.036 -0.283,0.17 -0.303,0.337l-0.908,0.082l0.914,0.05c0.033,0.153 0.157,0.272 0.313,0.301l0.082,0.911l0.049,-0.909c0.163,-0.027 0.293,-0.154 0.324,-0.316Z" style="fill:#fff;fill-rule:nonzero;"/><path d="M30.285,55.572l0.887,-0.085l-0.886,-0.05c-0.028,-0.171 -0.165,-0.305 -0.338,-0.327l-0.085,-0.883l-0.05,0.89c-0.161,0.036 -0.284,0.17 -0.304,0.336l-0.907,0.083l0.914,0.049c0.033,0.153 0.157,0.274 0.312,0.301l0.083,0.911l0.049,-0.909c0.163,-0.027 0.294,-0.154 0.325,-0.316Z" style="fill:#fff;fill-rule:nonzero;"/><path d="M63.654,48.908l0.887,-0.085l-0.886,-0.05c-0.027,-0.171 -0.165,-0.305 -0.338,-0.328l-0.085,-0.883l-0.05,0.89c-0.16,0.035 -0.283,0.17 -0.303,0.336l-0.907,0.083l0.914,0.049c0.033,0.153 0.157,0.273 0.312,0.301l0.083,0.911l0.049,-0.909c0.163,-0.026 0.293,-0.153 0.324,-0.315Z" style="fill:#fff;fill-rule:nonzero;"/><path d="M48.948,24.218c-3.703,1.439 -7.314,2.723 -10.362,3.677c-6.192,1.939 -23.134,7.188 -33.369,13.804l0.857,0.334c6.236,-3.523 10.289,-4.63 14.186,-5.855c4.236,-1.333 17.932,-4.538 24.134,-6.284c2.095,-0.589 4.549,-1.361 7.148,-2.301c-0.605,-0.843 -1.242,-1.689 -1.914,-2.533c-0.224,-0.285 -0.452,-0.566 -0.68,-0.842Zm4.523,6.235c-0.896,0.605 -1.647,1.088 -2.173,1.393c-3.047,1.761 -17.9,11.9 -21.278,14.233c-3.379,2.332 -12.758,11.186 -15.519,13.757l-0.095,1.046c8.902,-7.997 11.694,-9.969 15.233,-12.661c4.379,-3.332 13.439,-9.497 16.518,-11.472c2.943,-1.888 5.598,-3.625 7.98,-5.214c-0.039,-0.065 -0.078,-0.13 -0.116,-0.196c-0.18,-0.295 -0.363,-0.59 -0.55,-0.886Zm13.915,-14.697c-4.336,2.542 -11.171,5.61 -17.802,8.213c0.159,0.195 0.317,0.391 0.474,0.588c0.741,0.933 1.44,1.872 2.097,2.813c5.213,-1.92 10.932,-4.497 15.47,-7.616c-2.162,2.049 -9.309,7.39 -13.667,10.368c0.224,0.366 0.442,0.731 0.652,1.095c6.602,-4.418 11.045,-7.67 13.634,-9.844c3.57,-2.999 11.71,-9.711 14.804,-18.708c-5.427,6.903 -11.844,10.853 -15.662,13.091Z" style="fill:#fc3d21;fill-rule:nonzero;"/><path d="M37.298,39.731c-0.702,-0.884 -1.673,-2.067 -2.402,-2.985c-0.975,-1.228 -1.878,-2.468 -2.704,-3.706c-0.27,0.067 -0.539,0.135 -0.808,0.202c0.998,1.557 2.107,3.112 3.314,4.633c0.882,1.11 1.684,2.004 2.095,2.561c0.084,0.112 0.249,0.361 0.472,0.693c0.257,-0.175 0.516,-0.351 0.778,-0.528c-0.253,-0.276 -0.503,-0.565 -0.745,-0.87Zm5.125,4.652c-0.577,-0.545 -1.975,-1.457 -3.431,-2.825c-0.322,0.221 -0.646,0.444 -0.971,0.67c0.94,1.325 2.22,2.952 3.223,3.426c1.511,0.716 1.918,-0.571 1.179,-1.271Zm7.635,-19.826c-8.324,-10.477 -18.493,-16.233 -22.877,-12.749c-3.405,2.705 -2.007,10.612 2.686,18.918c0.243,-0.084 0.483,-0.165 0.721,-0.246c-4.737,-8.093 -6.033,-15.613 -2.822,-18.165c4.036,-3.207 13.781,2.571 21.864,12.744c1.673,2.106 3.144,4.219 4.39,6.28c4.769,7.894 6.233,15.033 2.938,17.947c-1.009,0.891 -4.09,1.241 -8.127,-0.576c-0.056,0.071 0.034,0.262 0.105,0.309c3.484,1.401 6.822,1.935 8.507,0.597c4.049,-3.218 0.939,-14.582 -7.385,-25.059Z" style="fill:#fff;fill-rule:nonzero;"/><path d="M14.358,25.8l5.331,0l4.475,7.593c0,0 0,-5.498 0,-5.927c0,-0.666 -0.845,-1.535 -1.143,-1.666c0.357,0 3.475,0 3.689,0c-0.226,0.06 -0.952,0.94 -0.952,1.666c0,0.357 0,8.331 0,8.712c0,0.535 0.774,1.273 1.143,1.559l-5.141,0l-4.546,-7.629c0,0 0,5.689 0,5.998c0,0.595 0.583,1.166 1.19,1.654l-3.927,0c0.559,-0.238 1.095,-0.987 1.142,-1.582c0.048,-0.595 0,-8.271 0,-8.605c0,-0.725 -0.702,-1.32 -1.261,-1.773Z" style="fill:#fff;fill-rule:nonzero;"/><path d="M63.126,37.737l7.093,0c-0.393,-0.096 -0.833,-0.56 -1.071,-1.179c-0.238,-0.618 -3.999,-10.758 -3.999,-10.758l-2.697,0c-0.764,0.551 -1.584,1.132 -2.459,1.743c-0.002,0.023 -0.005,0.045 -0.009,0.066c-0.117,0.714 -2.228,8.358 -2.356,8.735c-0.179,0.524 -1.095,1.107 -1.464,1.416l3.82,0c-0.381,-0.428 -0.69,-0.845 -0.619,-1.321c0.072,-0.476 0.286,-1.428 0.286,-1.428l3.951,0c0.179,0.476 0.312,0.904 0.381,1.309c0.083,0.488 -0.417,1.036 -0.857,1.417Zm-3.118,-4.249l1.333,-4.356l1.761,4.356l-3.094,0Zm-0.601,-7.253c0.196,-0.144 0.393,-0.289 0.589,-0.435l-1.035,0c0.103,0.096 0.274,0.245 0.446,0.435Z" style="fill:#fff;fill-rule:nonzero;"/><path d="M32.28,36.439c0.071,-0.476 0.285,-1.428 0.285,-1.428l3.951,0c0.179,0.476 0.312,0.904 0.381,1.309c0.084,0.488 -0.416,1.036 -0.857,1.417l6.245,0c0.13,-0.088 0.259,-0.175 0.389,-0.261c-0.242,-0.215 -0.465,-0.536 -0.612,-0.918c-0.238,-0.618 -3.998,-10.758 -3.998,-10.758l-6.189,0c0.298,0.274 1.155,1.012 1.024,1.809c-0.117,0.714 -2.228,8.358 -2.357,8.735c-0.178,0.524 -1.094,1.107 -1.463,1.416l3.82,0c-0.381,-0.428 -0.691,-0.845 -0.619,-1.321Zm1.975,-7.307l1.762,4.356l-3.095,0l1.333,-4.356Z" style="fill:#fff;fill-rule:nonzero;"/><path d="M53.851,31.725c-1.165,0.776 -2.394,1.586 -3.689,2.432c0.581,0.282 1.044,0.635 1.088,1.092c0.083,0.859 -1.642,1.274 -3.201,1.095c-0.312,-0.036 -0.618,-0.117 -0.91,-0.227c-0.324,0.209 -0.651,0.419 -0.982,0.632c-0.338,0.216 -0.747,0.483 -1.214,0.791l0,1.232c0.309,-0.607 0.986,-1.151 1.511,-1.178c0.226,-0.012 1.012,0.714 4.249,0.535c1.571,-0.086 4.605,-1.761 4.558,-3.689c-0.029,-1.139 -0.624,-2.028 -1.41,-2.715Zm-8.909,2.977l0,1.255c0.286,-0.191 0.569,-0.379 0.846,-0.562c-0.436,-0.304 -0.744,-0.587 -0.846,-0.693Zm7.802,-3.765c-0.302,-0.178 -0.607,-0.334 -0.9,-0.472c-1.523,-0.715 -3.118,-0.845 -3.451,-1.809c-0.235,-0.68 0.429,-1.309 2.047,-1.286c1.619,0.024 3.118,0.988 3.523,1.333l0,-3.07c-0.119,0.119 -0.641,0.718 -1.119,0.619c-0.916,-0.191 -2.475,-0.439 -4.26,-0.429c-2.047,0.012 -3.809,1.594 -3.868,3.594c-0.083,2.797 2.154,3.559 3.415,3.999c0.13,0.045 0.279,0.093 0.44,0.145c1.21,-0.787 2.167,-1.393 2.727,-1.716c0.376,-0.217 0.868,-0.528 1.446,-0.908Z" style="fill:#fff;fill-rule:nonzero;"/></g></g></svg>